<?xml version="1.0" standalone="no"?>
<!DOCTYPE svg PUBLIC "-//W3C//DTD SVG 20010904//EN"
 "http://www.w3.org/TR/2001/REC-SVG-20010904/DTD/svg10.dtd">
<svg version="1.0" xmlns="http://www.w3.org/2000/svg"
 width="256.000000pt" height="256.000000pt" viewBox="0 0 256.000000 256.000000"
 preserveAspectRatio="xMidYMid meet">
<metadata>
Created by potrace 1.11, written by Peter Selinger 2001-2013
</metadata>
<g transform="translate(0.000000,256.000000) scale(0.100000,-0.100000)"
fill="#000000" stroke="none">
<path d="M538 2152 c-15 -9 -32 -30 -38 -46 -15 -44 -14 -1527 2 -1561 21 -47
55 -56 196 -54 139 1 161 9 182 64 6 15 10 148 10 326 l0 299 390 0 390 0 0
-300 c0 -337 3 -359 60 -379 18 -6 84 -11 147 -11 126 0 161 11 181 55 18 38
16 1553 -1 1576 -31 41 -58 48 -190 48 -125 0 -129 -1 -158 -27 -17 -15 -32
-36 -34 -47 -2 -11 -4 -154 -4 -317 l-1 -298 -390 0 -390 0 -1 298 c0 163 -2
306 -4 317 -2 11 -17 32 -34 47 -29 26 -33 27 -158 27 -101 0 -134 -4 -155
-17z"/>
<path d="M242 1954 c-44 -31 -48 -56 -48 -271 l1 -203 -60 -1 c-33 -1 -63 -1
-67 0 -4 0 -21 -13 -38 -30 -31 -31 -31 -33 -29 -125 1 -86 3 -94 28 -116 20
-18 42 -24 96 -28 l70 -5 0 -207 c1 -226 5 -247 57 -269 28 -11 111 -19 133
-12 7 2 10 222 9 636 -1 347 -2 635 -3 640 -2 14 -126 7 -149 -9z"/>
<path d="M2167 1963 c-3 -7 -2 -1240 2 -1269 1 -15 99 -11 138 5 53 22 57 42
58 270 l0 206 73 6 c106 8 116 21 119 146 2 97 2 97 -29 125 -17 15 -33 27
-37 26 -3 0 -33 0 -66 1 l-60 1 1 203 c0 214 -4 241 -48 271 -23 17 -143 23
-151 9z"/>
</g>
</svg>
